<svg width="225" height="310" viewBox="0 0 225 310" fill="none" xmlns="http://www.w3.org/2000/svg">
<g clip-path="url(#clip0_1091_1162)">
<path d="M0 7.99999C0 3.58171 3.58172 0 8 0L217 0C221.418 0 225 3.58172 225 8L225 302C225 306.418 221.418 310 217 310H8C3.58172 310 0 306.418 0 302L0 7.99999Z" fill="#1F1F1F"/>
<path d="M6.82911 15C6.82911 10.7635 10.2635 7.32911 14.5 7.32911L210.5 7.32911C214.737 7.32911 218.171 10.7635 218.171 15L218.171 295C218.171 299.237 214.737 302.671 210.5 302.671H14.5C10.2635 302.671 6.82911 299.237 6.82911 295L6.82911 15Z" fill="white" stroke="#1F1F1F" stroke-width="0.658228"/>
<path d="M13.8291 20C13.8291 16.8681 16.3681 14.3291 19.5 14.3291L205.5 14.3291C208.632 14.3291 211.171 16.8681 211.171 20L211.171 290C211.171 293.132 208.632 295.671 205.5 295.671H19.5C16.3681 295.671 13.8291 293.132 13.8291 290L13.8291 20Z" fill="white" stroke="#1F1F1F" stroke-width="0.658228"/>
<path d="M99.8359 55.048C99.8359 53.8013 100.019 52.694 100.386 51.726C100.753 50.758 101.244 49.9293 101.86 49.24C102.491 48.5507 103.202 48.0007 103.994 47.59C104.786 47.1793 105.622 46.908 106.502 46.776C107.397 46.6293 108.284 46.6293 109.164 46.776C110.059 46.908 110.902 47.1793 111.694 47.59C112.501 48.0007 113.212 48.5507 113.828 49.24C114.444 49.9293 114.935 50.758 115.302 51.726C115.669 52.694 115.852 53.8013 115.852 55.048C115.852 56.28 115.669 57.38 115.302 58.348C114.935 59.316 114.444 60.1447 113.828 60.834C113.212 61.5233 112.501 62.0733 111.694 62.484C110.902 62.8947 110.059 63.166 109.164 63.298C108.284 63.4447 107.397 63.4447 106.502 63.298C105.622 63.166 104.786 62.8947 103.994 62.484C103.202 62.0733 102.491 61.5233 101.86 60.834C101.244 60.1447 100.753 59.316 100.386 58.348C100.019 57.38 99.8359 56.28 99.8359 55.048ZM110.924 54.212C110.484 52.5547 109.919 51.286 109.23 50.406C108.555 49.5113 107.866 48.9833 107.162 48.822C106.458 48.646 105.842 48.8073 105.314 49.306C104.801 49.8047 104.471 50.6113 104.324 51.726C104.177 52.826 104.324 54.212 104.764 55.884C105.219 57.5413 105.783 58.8173 106.458 59.712C107.133 60.592 107.822 61.1127 108.526 61.274C109.23 61.4353 109.846 61.274 110.374 60.79C110.902 60.2913 111.232 59.492 111.364 58.392C111.511 57.2773 111.364 55.884 110.924 54.212Z" fill="#1F1F1F"/>
<path d="M124.439 53.068C124.718 53.068 124.989 53.0827 125.253 53.112C126.397 53.2733 127.343 53.728 128.091 54.476C128.839 55.2093 129.206 56.2727 129.191 57.666C129.162 58.59 128.92 59.448 128.465 60.24C128.025 61.0173 127.424 61.648 126.661 62.132C125.913 62.616 125.062 62.858 124.109 62.858C123.361 62.858 122.664 62.792 122.019 62.66C121.374 62.528 120.699 62.286 119.995 61.934C119.716 61.7873 119.504 61.7653 119.357 61.868C119.21 61.9707 119.115 62.1247 119.071 62.33C119.042 62.5353 119.027 62.7113 119.027 62.858H117.157V58.15H119.027C119.35 59.1033 119.834 59.822 120.479 60.306C121.124 60.7753 121.799 60.966 122.503 60.878C123.178 60.7753 123.713 60.46 124.109 59.932C124.505 59.3893 124.74 58.766 124.813 58.062C124.901 57.3433 124.828 56.6907 124.593 56.104C124.373 55.5027 123.984 55.092 123.427 54.872C122.87 54.652 122.136 54.7547 121.227 55.18L120.435 53.486L122.965 51.682L125.055 50.208H121.975C120.376 50.164 119.562 50.5087 119.533 51.242H117.663V47.238H127.409L128.773 50.208L124.439 53.068Z" fill="#1F1F1F"/>
<rect x="30.1055" y="173" width="164" height="92" fill="white"/>
<path d="M128.766 205.78C134.012 205.78 138.266 210.034 138.266 215.28C138.266 220.527 134.012 224.78 128.766 224.78H101.565C100.926 229.631 94.928 230.213 91.5409 229.56C94.2974 228.812 96.5125 227.389 95.8374 224.78H91.7656C86.5189 224.78 82.2656 220.527 82.2656 215.28C82.2656 210.034 86.5189 205.78 91.7656 205.78H128.766Z" stroke="#1F1F1F" stroke-width="0.6"/>
<path d="M107.715 212.485C102.468 212.485 98.2148 216.739 98.2148 221.985C98.2148 227.232 102.468 231.485 107.715 231.485H132.294C132.888 236.336 138.457 236.917 141.602 236.265C139.043 235.517 136.986 234.094 137.612 231.485H140.715C145.962 231.485 150.215 227.232 150.215 221.985C150.215 216.739 145.962 212.485 140.715 212.485H107.715Z" stroke="#1F1F1F" stroke-width="0.6"/>
<ellipse cx="17.3752" cy="3.2007" rx="17.3752" ry="3.2007" transform="matrix(-1 0 0 1 97.7344 251.39)" fill="#1F1F1F"/>
<path d="M69.8438 258.248L71.6727 251.39L70.0747 251.777L69.8438 258.248Z" fill="white"/>
<path d="M82.9625 214.811L79.5222 232.712H77.611L71.8773 215.195L70.3483 215.579C70.0935 218.011 70.9442 227.142 71.25 228.985C71.5558 230.828 72.8725 231.495 74.4507 234.015C74.3233 236.703 73.2232 242.841 73.0241 243.848C72.8452 244.752 71.6242 251.789 70.7098 254.989C70.7098 254.989 73.0562 254.921 78.4077 254.921C83.7592 254.921 86.4319 254.6 86.4319 254.6C87.2743 254.295 88.008 253.371 89.8428 253.064C92.1363 252.68 94.8793 247.589 94.7453 246.36C94.6136 245.154 92.7122 243.752 90.9228 245.592C89.2584 247.304 87.1671 248.456 86.0203 247.304C84.8736 246.152 84.1091 245.384 86.0203 244.232C87.9316 243.08 88.3138 241.16 88.3138 239.624C88.3138 238.395 84.0076 234.837 82.2238 233.558C83.5956 231.271 84.6615 230.064 84.9673 228.528C85.2731 226.992 84.4915 218.468 84.4915 215.195L82.9625 214.811Z" fill="#1F1F1F"/>
<path d="M89.1016 254.342L91.5452 252.089L92.6686 252.311L89.1016 254.342Z" fill="white"/>
<ellipse cx="151.754" cy="254.59" rx="17.3752" ry="3.2007" fill="#1F1F1F"/>
<path d="M162.27 258.248L160.441 251.39L162.039 251.777L162.27 258.248Z" fill="white"/>
<path d="M149.151 214.811L152.591 232.712H154.502L160.236 215.195L161.765 215.579C162.02 218.011 161.169 227.142 160.863 228.985C160.557 230.828 159.241 231.495 157.663 234.015C157.79 236.703 158.89 242.841 159.089 243.848C159.268 244.752 160.489 251.789 161.404 254.989C161.404 254.989 159.057 254.921 153.706 254.921C148.354 254.921 145.681 254.6 145.681 254.6C144.839 254.295 144.105 253.371 142.27 253.064C139.977 252.68 137.234 247.589 137.368 246.36C137.5 245.154 139.401 243.752 141.19 245.592C142.855 247.304 144.946 248.456 146.093 247.304C147.24 246.152 148.004 245.384 146.093 244.232C144.182 243.08 143.799 241.16 143.799 239.624C143.799 238.395 148.106 234.837 149.889 233.558C148.518 231.271 147.452 230.064 147.146 228.528C146.84 226.992 147.622 218.468 147.622 215.195L149.151 214.811Z" fill="#1F1F1F"/>
<path d="M143.012 254.342L140.568 252.089L139.445 252.311L143.012 254.342Z" fill="white"/>
<path fill-rule="evenodd" clip-rule="evenodd" d="M132.657 182.085L132.565 182.134C131.849 181.002 130.862 179.517 128.892 179.279L127.401 179.098L126.807 185.769L130.924 185.834L130.833 186.876L126.793 185.933L126.262 191.84C126.199 192.554 126.264 192.882 126.542 193.096L126.542 193.235L124.359 192.973L124.358 192.833C124.636 192.677 124.793 192.39 124.856 191.676L125.89 180.108C125.953 179.394 125.852 179.074 125.602 178.86L125.602 178.696L132.296 179.517L132.657 182.085ZM78.8132 196.5L80.5459 195.942L80.4887 195.876C80.1889 195.786 79.9957 195.523 79.8232 194.834L76.638 181.904L76.5168 181.904L75.0059 182.806L75.049 182.962C75.4056 182.913 75.5058 183.093 75.6784 183.782L76.5124 187.179C76.1508 187.168 75.7899 187.22 75.4425 187.335C73.5386 187.95 69.7968 190.059 71.0974 194.9C71.3332 195.901 71.8959 196.759 72.668 197.296C73.4401 197.832 74.3619 198.006 75.241 197.78C77.644 197.009 77.7446 193.612 77.5047 191.216L78.8132 196.5ZM76.5698 187.319L77.2457 190.084C77.6269 191.741 77.7352 196.163 75.9534 197.214C74.5565 198.01 73.0482 196.492 72.5384 194.801C71.0593 189.846 73.8385 188.049 75.4927 187.475C75.8434 187.364 76.206 187.312 76.5698 187.319ZM71.4408 198.773L71.491 198.905L69.4523 199.881L69.4021 199.75C69.6013 199.454 69.5507 199.102 69.2784 198.494C69.0061 197.887 67.5876 194.81 67.1292 193.867C66.4988 192.505 65.3048 191.184 64.001 192.226C62.3125 193.522 63.4048 197.649 64.0143 199.241L64.5737 200.792C64.8176 201.456 65.032 201.686 65.3603 201.727L65.4105 201.858L63.3646 202.835L63.3216 202.703C63.5066 202.416 63.5202 202.08 63.2764 201.415L60.9526 195.007C60.7087 194.351 60.5871 194.187 60.2377 194.277L60.1875 194.146L61.6123 192.989L61.7263 192.932L63.419 197.584C62.8654 195.36 62.489 192.521 64.6275 191.496C65.9748 190.848 67.4812 191.356 68.5342 193.539C68.9644 194.448 69.41 195.399 69.7844 196.198L69.7845 196.198L69.7854 196.2C70.1338 196.943 70.4205 197.555 70.5758 197.879C70.8981 198.552 71.1339 198.724 71.4408 198.773ZM55.5884 192.929C55.5721 193.12 55.6054 193.312 55.6841 193.482C55.7353 193.594 55.8055 193.694 55.8905 193.775C55.9755 193.856 56.0736 193.918 56.1792 193.955C56.2848 193.992 56.3957 194.005 56.5056 193.993C56.6155 193.981 56.7221 193.944 56.8193 193.884C56.9667 193.795 57.0877 193.657 57.167 193.489C57.2463 193.32 57.2802 193.128 57.2644 192.937C57.2487 192.746 57.1841 192.565 57.0787 192.416C56.9733 192.267 56.8319 192.158 56.6725 192.101C56.513 192.045 56.3427 192.044 56.1831 192.099C56.0235 192.154 55.8817 192.262 55.7759 192.41C55.67 192.558 55.6048 192.739 55.5884 192.929ZM62.5524 203.45L62.4879 203.327C62.1667 203.27 61.9309 203.065 61.6372 202.474L58.1626 194.95L58.0486 195.016L56.7525 196.32L56.8098 196.444C57.1021 196.288 57.2308 196.468 57.5246 197.108L60.3901 203.229C60.6838 203.869 60.6987 204.205 60.5352 204.509L60.5996 204.64L62.5524 203.45ZM54.1544 195.106L54.2041 194.999L52.5313 193.293L46.9027 197.494L46.9743 197.633C47.2882 197.625 47.5383 197.805 47.8819 198.404L53.4298 208.135C53.7662 208.734 53.8097 209.071 53.6747 209.39C53.6934 209.433 53.715 209.475 53.7392 209.514L55.5845 208.143L55.5201 208.02C55.2062 208.07 54.9561 207.856 54.6125 207.249L51.7491 202.244L55.398 200.053L54.9041 199.176L51.6704 202.105L48.4847 196.476L49.7458 195.541C51.3987 194.285 52.9835 194.737 54.1544 195.106ZM90.9253 187.985C90.9253 187.985 90.0344 192.26 89.6313 194.18C89.2282 196.1 88.6392 197.765 87.2412 198.003C86.8131 198.09 86.3721 198.033 85.9707 197.839C85.5694 197.646 85.2246 197.324 84.9774 196.912L86.1658 195.271L86.2872 195.353C86.2894 196.518 86.6491 198.052 87.6046 197.765C88.5601 197.478 89.0283 196.026 89.4462 194.426L86.3959 188.682C85.4007 186.82 84.9211 186.008 83.9638 185.335L83.9635 185.179L86.6667 184.72L86.667 184.884C86.2972 185.507 86.5051 186.032 87.0565 187.099L89.9204 192.391L90.7969 187.985C91.2141 186.008 91.2761 184.859 90.3902 184.244L90.3899 184.08L92.4726 183.727L92.473 183.891C91.7067 185.111 91.1787 186.507 90.9253 187.985ZM101.225 191.358C102.06 190.257 102.481 188.82 102.396 187.361C102.206 184.538 100.005 183.02 97.5941 183.267C96.9661 183.311 96.3524 183.499 95.7887 183.819C95.225 184.139 94.7225 184.585 94.3105 185.131C93.8986 185.677 93.5853 186.312 93.389 186.999C93.1928 187.686 93.1174 188.411 93.1672 189.133C93.3795 191.972 95.5442 193.457 97.9411 193.235C99.2096 193.134 100.39 192.459 101.225 191.358ZM96.275 183.734C98.2569 182.873 100.051 184.456 100.854 186.852C101.658 189.264 101.285 191.849 99.31 192.735C97.3353 193.621 95.5415 192.046 94.7378 189.625C93.9342 187.205 94.2931 184.596 96.275 183.734ZM112.151 192.407L110.332 192.407L110.223 187.427C110.041 189.748 109.519 192.555 107.179 192.612C105.538 192.661 104.208 191.504 104.161 189.084L104.059 184.284C104.058 183.562 103.986 183.365 103.644 183.308L103.643 183.168L105.305 182.668L105.433 182.668L105.574 189.355C105.578 191.135 106.451 192.637 107.977 192.226C109.96 191.726 110.223 187.427 110.191 185.662L110.152 184.087C110.151 183.365 110.079 183.16 109.744 183.111L109.743 182.963L111.412 182.471L111.533 182.471L111.72 190.979C111.722 191.693 111.865 192.005 112.158 192.177L112.151 192.407ZM118.838 185.728L119.969 183.996C119.741 183.611 119.434 183.295 119.076 183.076C118.717 182.857 118.318 182.742 117.912 182.741C116.021 182.675 115.456 185.687 115.225 188.148L115.344 182.651L115.208 182.651L113.518 183.045L113.518 183.192C113.875 183.266 113.911 183.471 113.912 184.185L113.754 191.118C113.734 191.84 113.606 192.144 113.314 192.316L113.314 192.456L115.526 192.529L115.526 192.39C115.262 192.193 115.161 191.881 115.16 191.167L115.158 190.347C115.155 188.607 115.53 183.324 117.285 183.069C118.241 182.938 118.715 184.472 118.717 185.646L118.838 185.728ZM136.455 194.901C138.953 195.377 140.327 193.687 140.639 192.276C140.844 191.589 140.825 190.838 140.585 190.165C140.345 189.491 139.9 188.941 139.333 188.617L139.726 188.69L140.975 188.928C141.077 186.434 139.134 185.212 137.628 185.006C135.673 184.76 132.692 185.753 132.285 189.265C131.878 192.62 133.957 194.426 136.455 194.901ZM134.044 187.607L138.598 188.477C139.954 188.731 140.984 190.2 140.46 192.3C140.209 193.076 139.731 193.727 139.109 194.143C138.487 194.559 137.758 194.714 137.047 194.581C136.199 194.524 135.397 194.12 134.783 193.443C134.17 192.767 133.786 191.861 133.701 190.889C133.543 189.779 133.662 188.641 134.044 187.607ZM139.711 188.526L134.101 187.451H134.115C134.319 186.807 134.679 186.243 135.152 185.826C135.625 185.409 136.192 185.156 136.786 185.097C137.178 185.086 137.567 185.168 137.929 185.338C138.292 185.507 138.621 185.761 138.895 186.082C139.17 186.404 139.384 186.787 139.524 187.207C139.664 187.628 139.728 188.077 139.711 188.526ZM149.058 189.15L148.348 190.889H148.255C148.073 189.043 147.214 187.501 146.229 187.23C145.051 186.902 144.232 187.476 143.976 188.272C143.597 189.513 144.764 190.367 145.993 191.268C147.341 192.255 148.765 193.298 148.313 194.967C147.88 196.518 146.355 197.338 144.406 196.805C143.18 196.472 142.087 195.671 141.305 194.532L142.079 192.637H142.165C142.468 194.196 143.428 196.214 144.97 196.641C146.219 196.986 147.309 196.502 147.593 195.673C147.983 194.538 146.92 193.81 145.747 193.005C144.315 192.024 142.718 190.93 143.392 188.846C143.804 187.583 144.672 186.582 146.564 187.107C147.549 187.497 148.415 188.207 149.058 189.15ZM151.844 199.175C153.629 199.823 154.811 198.371 155.628 196.648L155.535 196.582C154.825 197.977 153.857 199.323 152.686 199.093C151.18 198.79 151.127 197.329 151.588 195.623L153.274 189.403L155.281 190.125L155.323 189.969L151.561 188.616C152.177 188.776 152.822 188.679 153.38 188.34C153.938 188.002 154.372 187.445 154.604 186.77L153.261 186.285C153.006 187.221 152.396 188.919 150.968 188.402L150.925 188.558L151.932 188.919L150.324 194.851C149.7 197.157 150.331 198.625 151.844 199.175ZM156.842 200.923L156.793 201.054L154.722 200.168C154.722 200.168 154.722 200.07 154.764 200.037C155.071 199.971 155.277 199.733 155.476 199.052L157.561 192.554C157.781 191.881 157.795 191.668 157.495 191.479C157.507 191.432 157.521 191.385 157.538 191.34L159.243 191.594L159.365 191.643L156.797 199.618C156.606 200.291 156.628 200.636 156.842 200.923ZM158.688 188.558C158.726 188.44 158.784 188.331 158.859 188.238C158.933 188.145 159.023 188.07 159.123 188.017C159.223 187.965 159.332 187.936 159.442 187.931C159.552 187.927 159.661 187.948 159.765 187.992C159.973 188.081 160.142 188.262 160.235 188.494C160.328 188.727 160.336 188.992 160.259 189.231C160.182 189.471 160.025 189.665 159.823 189.771C159.622 189.877 159.391 189.887 159.183 189.797C159.079 189.753 158.985 189.687 158.904 189.6C158.823 189.514 158.758 189.411 158.712 189.296C158.666 189.18 158.64 189.056 158.636 188.93C158.632 188.803 158.65 188.677 158.688 188.558ZM162.588 202.219L165.543 198.995C166.469 197.926 167.584 197.098 168.813 196.566L168.87 196.41L166.956 195.401L166.899 195.549C167.343 196.615 166.76 197.551 165.478 198.946L162.63 202.047L162.754 195.844C162.787 194.564 162.843 194.023 163.464 193.744L163.527 193.596L161.042 192.283L160.985 192.439C161.437 193.596 161.489 194.572 161.443 196.763L161.262 203.237L162.548 203.909L162.588 202.219ZM171.455 209.726L169.912 208.66L171.199 206.198C169.996 207.47 168.619 207.905 167.148 206.887C165.897 206.018 165.003 204.483 165.492 203.08C166.202 201.111 167.628 200.701 169.127 200.955C169.206 200.497 169.384 200.069 169.644 199.711C169.905 199.352 170.239 199.075 170.617 198.903C170.995 198.732 171.404 198.672 171.808 198.73C172.211 198.787 172.596 198.96 172.927 199.232C174.198 200.11 175.136 201.817 174.006 203.983L171.731 208.34C171.404 208.955 171.376 209.291 171.519 209.603L171.455 209.726ZM171.363 205.887L172.784 203.179C172.549 202.854 172.269 202.577 171.955 202.358C170.283 201.202 167.528 200.586 166.565 204.131C166.453 204.663 166.499 205.222 166.695 205.722C166.891 206.221 167.226 206.631 167.647 206.887C169.04 207.749 170.423 206.937 171.391 205.887H171.363ZM172.026 202.194C171.201 201.615 170.297 201.202 169.353 200.972C169.424 200.576 169.576 200.205 169.796 199.889C170.021 199.567 170.31 199.312 170.639 199.146C170.967 198.98 171.326 198.908 171.685 198.936C172.044 198.964 172.391 199.091 172.699 199.306C173.785 200.061 173.637 201.554 172.927 202.892L172.863 203.015C172.62 202.696 172.338 202.42 172.026 202.194ZM173.906 211.992L173.977 211.877C173.862 211.532 173.926 211.212 174.317 210.605L181.361 199.939L181.261 199.857L179.704 199.036L179.611 199.167C179.854 199.455 179.79 199.652 179.413 200.226L173.195 209.661C172.818 210.236 172.555 210.392 172.248 210.351L172.169 210.465L173.906 211.992Z" fill="#1F1F1F"/>
<path d="M57.6805 85.088V99.216H59.1685V91.968H61.3445V90.752H59.1685V85.088H57.6805ZM48.2885 95.472L49.1045 96.592C53.6965 94.288 55.4885 90.672 55.4885 86.608H48.9765V87.792H54.0165C53.7285 91.104 51.8085 93.68 48.2885 95.472ZM62.9449 86.464V87.664H71.4409V87.856C71.4409 89.552 71.4409 91.536 70.9129 94.272L72.3849 94.432C72.8969 91.552 72.8969 89.6 72.8969 87.856V86.464H62.9449ZM61.6009 97.312H74.3689V96.096H67.9209V91.104H66.4649V96.096H61.6009V97.312ZM88.1208 85.12V92.944H89.5768V85.12H88.1208ZM78.0408 91.536L78.7608 92.688C80.4408 92.112 81.7048 90.88 82.3288 89.312C82.9688 90.768 84.2008 91.888 85.8328 92.432L86.5368 91.28C84.4088 90.608 83.0488 88.88 83.0488 86.976V85.632H81.5768V86.976C81.5768 88.96 80.2168 90.8 78.0408 91.536ZM80.0728 99.04H89.8168V97.872H87.8168V94.912H89.6728V93.744H80.2008V94.912H82.0728V97.872H80.0728V99.04ZM83.5128 97.872V94.912H86.3768V97.872H83.5128ZM91.3372 92.48V93.664H104.089V92.48H91.3372ZM92.7132 88.416C92.7132 90.192 94.6812 91.248 97.7052 91.248C100.745 91.248 102.713 90.192 102.713 88.416C102.713 86.64 100.745 85.568 97.7052 85.568C94.6812 85.568 92.7132 86.64 92.7132 88.416ZM92.9692 98.944H102.665V97.744H94.4252V94.832H92.9692V98.944ZM94.2172 88.416C94.2172 87.36 95.5772 86.768 97.7052 86.768C99.8652 86.768 101.209 87.36 101.209 88.416C101.209 89.456 99.8652 90.08 97.7052 90.08C95.5772 90.08 94.2172 89.456 94.2172 88.416ZM107.729 92.176V93.344H113.377V94.864H109.153V96.032H117.457V99.184H118.913V94.864H114.833V93.344H120.481V92.176H107.729ZM108.449 90.352L108.881 91.456C111.265 91.232 113.233 90.416 114.097 89.088C114.977 90.416 116.929 91.232 119.313 91.456L119.761 90.352C116.993 90.128 115.041 89.04 114.897 87.616H119.201V86.464H114.833V85.056H113.377V86.464H109.025V87.616H113.313C113.169 89.04 111.217 90.128 108.449 90.352ZM131.681 85.104V99.216H133.073V85.104H131.681ZM120.865 95.36L121.761 96.448C123.137 95.584 124.081 94 124.577 92.144C125.073 93.856 126.001 95.296 127.329 96.112L128.209 95.04C126.257 93.904 125.281 91.472 125.281 89.04V87.904H127.697V86.704H121.281V87.904H123.857V89.04C123.857 91.584 122.849 94.144 120.865 95.36ZM126.641 91.328H128.849V98.512H130.209V85.424H128.849V90.128H126.641V91.328ZM145.042 85.104V99.216H146.434V85.104H145.042ZM134.578 91.2C134.578 94.272 135.762 96.176 137.586 96.176C139.314 96.176 140.466 94.496 140.594 91.728H142.21V98.528H143.586V85.408H142.21V90.528H140.594C140.434 87.872 139.282 86.24 137.586 86.24C135.762 86.24 134.578 88.144 134.578 91.2ZM135.906 91.2C135.906 88.944 136.546 87.616 137.586 87.616C138.642 87.616 139.282 88.944 139.282 91.2C139.282 93.472 138.642 94.8 137.586 94.8C136.546 94.8 135.906 93.472 135.906 91.2ZM161.418 85.104V90.704H159.594V85.408H158.234V98.496H159.594V91.92H161.418V99.216H162.81V85.104H161.418ZM151.306 95.808H152.234C154.266 95.808 155.706 95.744 157.418 95.408L157.258 94.208C155.786 94.496 154.474 94.576 152.746 94.592V88H156.522V86.816H151.306V95.808ZM173.674 85.12V95.696H175.146V90.896H177.178V89.68H175.146V85.12H173.674ZM164.186 87.936H172.522V86.768H169.082V85.12H167.626V86.768H164.186V87.936ZM164.954 91.312C164.954 92.912 166.346 93.952 168.346 93.952C170.362 93.952 171.754 92.912 171.754 91.312C171.754 89.712 170.362 88.656 168.346 88.656C166.346 88.656 164.954 89.712 164.954 91.312ZM166.298 98.928H175.754V97.728H167.738V94.864H166.298V98.928ZM166.346 91.312C166.346 90.368 167.162 89.792 168.346 89.792C169.546 89.792 170.346 90.368 170.346 91.312C170.346 92.24 169.546 92.832 168.346 92.832C167.162 92.832 166.346 92.24 166.346 91.312ZM45.0797 110.56H38.6957V111.728H43.6397C43.5757 112.544 43.4477 113.328 43.2237 114.08L37.9757 114.4L38.1997 115.648L42.7757 115.232C41.9117 117.04 40.3917 118.576 37.9277 119.824L38.7437 120.96C43.7197 118.4 45.0797 114.704 45.0797 110.56ZM45.0317 115.92H48.1357V123.232H49.5757V109.12H48.1357V114.704H45.0317V115.92ZM51.304 117.2V118.4H54.472V123.312H55.928V118.4H59.464V123.312H60.952V118.4H64.088V117.2H51.304ZM52.904 115.408H62.456V109.872H52.904V115.408ZM54.328 114.24V111.04H61.032V114.24H54.328ZM74.8084 109.104V123.216H76.2484V109.104H74.8084ZM65.4964 119.616H66.6964C68.8884 119.616 71.1604 119.456 73.6084 118.944L73.4164 117.712C71.1444 118.192 68.9844 118.352 66.9524 118.368V110.48H65.4964V119.616ZM78.8568 110.368V119.872H79.9928C82.6488 119.872 84.5528 119.808 86.7608 119.424L86.6168 118.256C84.5368 118.592 82.7448 118.672 80.2968 118.672V115.472H85.2248V114.32H80.2968V111.568H85.7528V110.368H78.8568ZM88.1368 123.232H89.6088V109.12H88.1368V123.232ZM91.3372 115.632V116.72H104.121V115.632H91.3372ZM92.8412 118.784H101.113V119.856H92.8732V123.072H102.969V122.016H94.3132V120.848H102.537V117.744H92.8412V118.784ZM92.9532 110.528H101.049V111.552H92.9852V114.672H102.761V113.616H94.4092V112.528H102.489V109.488H92.9532V110.528ZM117.265 109.12V118.608H118.721V114.544H120.737V113.328H118.721V109.12H117.265ZM107.633 117.072L107.825 118.24C110.273 118.24 113.585 118.208 116.593 117.68L116.481 116.64C115.297 116.816 114.033 116.912 112.769 116.976V116.048C114.353 115.872 115.345 115.12 115.345 114C115.345 112.704 114.033 111.904 112.017 111.904C110.017 111.904 108.705 112.704 108.705 114C108.705 115.136 109.713 115.888 111.313 116.064V117.024C110.001 117.072 108.737 117.072 107.633 117.072ZM107.985 111.424H116.065V110.336H112.769V108.992H111.313V110.336H107.985V111.424ZM109.377 120.432H117.265V123.232H118.721V119.296H109.377V120.432ZM110.097 114C110.097 113.312 110.833 112.896 112.017 112.896C113.217 112.896 113.969 113.312 113.969 114C113.969 114.672 113.217 115.104 112.017 115.104C110.833 115.104 110.097 114.672 110.097 114ZM131.201 109.12V119.376H132.673V109.12H131.201ZM121.361 113.584C121.361 115.616 122.977 117.072 125.073 117.072C127.185 117.072 128.785 115.616 128.785 113.584C128.785 111.52 127.185 110.08 125.073 110.08C122.977 110.08 121.361 111.52 121.361 113.584ZM122.785 113.584C122.785 112.24 123.777 111.344 125.073 111.344C126.385 111.344 127.377 112.24 127.377 113.584C127.377 114.896 126.385 115.792 125.073 115.792C123.777 115.792 122.785 114.896 122.785 113.584ZM123.537 122.928H133.089V121.728H124.993V118.336H123.537V122.928ZM134.386 111.456V112.64H141.33V111.456H138.594V109.504H137.154V111.456H134.386ZM134.834 116.752C134.834 118.688 136.098 120.016 137.874 120.016C139.634 120.016 140.914 118.688 140.914 116.752C140.914 114.864 139.634 113.52 137.874 113.52C136.098 113.52 134.834 114.864 134.834 116.752ZM136.13 116.752C136.13 115.552 136.85 114.736 137.874 114.736C138.882 114.736 139.618 115.552 139.618 116.752C139.618 117.968 138.882 118.784 137.874 118.784C136.85 118.784 136.13 117.968 136.13 116.752ZM141.986 122.544H143.362V116.208H144.994V123.216H146.386V109.104H144.994V115.008H143.362V109.424H141.986V122.544ZM147.762 120.24V121.456H160.546V120.24H154.866V117.312H159.058V110.08H157.602V112.512H150.69V110.08H149.234V117.312H153.41V120.24H147.762ZM150.69 116.144V113.696H157.602V116.144H150.69ZM166.659 114.096V115.296H168.851V122.528H170.211V109.408H168.851V114.096H166.659ZM160.915 119.152L161.811 120.24C163.171 119.392 164.147 117.856 164.659 116.064C165.155 117.712 166.051 119.136 167.347 119.936L168.179 118.8C166.307 117.632 165.347 115.248 165.347 112.976V110.432H163.939V113.024C163.939 115.44 162.883 117.968 160.915 119.152ZM171.715 123.216H173.123V109.104H171.715V123.216ZM174.451 120.24V121.44H187.235V120.24H184.179V116.496C185.315 115.856 185.987 114.864 185.987 113.616C185.987 111.392 183.843 109.952 180.819 109.952C177.843 109.952 175.667 111.392 175.667 113.616C175.667 114.88 176.371 115.888 177.523 116.512V120.24H174.451ZM177.091 113.616C177.091 112.08 178.643 111.104 180.819 111.104C183.011 111.104 184.563 112.08 184.563 113.616C184.563 115.152 183.011 116.128 180.819 116.128C178.643 116.128 177.091 115.152 177.091 113.616ZM178.963 120.24V117.056C179.539 117.2 180.163 117.264 180.819 117.264C181.491 117.264 182.131 117.2 182.707 117.056V120.24H178.963Z" fill="#1F1F1F"/>
</g>
<defs>
<clipPath id="clip0_1091_1162">
<rect width="225" height="310" fill="white"/>
</clipPath>
</defs>
</svg>
